<svg width="35" height="32" viewBox="0 0 35 32" fill="none" xmlns="http://www.w3.org/2000/svg">
<path d="M24.792 0.319674C27.082 -0.1673 30.1305 -0.310226 32.0117 1.46616C33.8106 3.16457 34.8244 5.76499 34.4483 8.3187C34.1367 10.4324 32.9814 12.2846 31.8555 14.058C29.4862 17.7951 27.1135 21.529 24.7442 25.263C23.8682 26.6461 22.9775 28.0418 21.8311 29.1751C20.6847 30.3083 19.2327 31.1765 17.666 31.2796C15.8817 31.3951 14.1413 30.5083 12.7979 29.2533C11.4544 28.0013 10.4429 26.4022 9.44923 24.8255C7.25947 21.3526 2.88543 14.4191 2.85841 14.3763C2.85841 14.3763 0.0480264 9.82978 0.000990959 7.19467C-0.0488353 4.30686 1.78546 1.494 4.33986 0.504244C6.39765 -0.295031 8.68807 0.0355896 10.8194 0.572603C12.9534 1.11271 15.0728 1.85574 17.2656 1.85581C19.8261 1.85893 22.2815 0.853564 24.792 0.319674ZM17 11.0003C14.2386 11.0003 12 13.2389 12 16.0003C12.0002 18.7616 14.2387 21.0003 17 21.0003C19.7613 21.0003 21.9998 18.7616 22 16.0003C22 13.2389 19.7614 11.0003 17 11.0003Z" fill="#8DFFC9"/>
</svg>
